<svg xmlns="http://www.w3.org/2000/svg" viewBox="0 0 200 200" fill="none">
  <!-- Volleyball -->
  <circle cx="100" cy="85" r="60" fill="#F5C518"/>
  <circle cx="100" cy="85" r="60" stroke="#2563EB" stroke-width="3"/>
  <!-- Volleyball lines -->
  <path d="M 55 55 Q 100 95 145 55" stroke="#2563EB" stroke-width="3" fill="none"/>
  <path d="M 55 115 Q 100 75 145 115" stroke="#2563EB" stroke-width="3" fill="none"/>
  <path d="M 100 25 Q 95 85 100 145" stroke="#2563EB" stroke-width="3" fill="none"/>
  <!-- Hands/cradle beneath -->
  <path d="M 50 140 Q 55 125 70 130 Q 85 135 100 140 Q 115 135 130 130 Q 145 125 150 140" 
        stroke="#E97820" stroke-width="4" stroke-linecap="round" fill="none"/>
  <path d="M 40 150 Q 50 135 65 138 Q 85 142 100 148 Q 115 142 135 138 Q 150 135 160 150" 
        stroke="#E97820" stroke-width="3.5" stroke-linecap="round" fill="none" opacity="0.7"/>
  <!-- Text -->
  <text x="100" y="185" text-anchor="middle" font-family="Arial, Helvetica, sans-serif" font-size="26" font-weight="bold">
    <tspan fill="#2563EB">SET</tspan><tspan fill="#E97820">BAAS</tspan>
  </text>
</svg>
